<?xml version="1.0" encoding="UTF-8"?>
<!DOCTYPE svg PUBLIC "-//W3C//DTD SVG 1.1//EN" "http://www.w3.org/Graphics/SVG/1.1/DTD/svg11.dtd">
<!-- Creator: CorelDRAW X7 -->
<svg xmlns="http://www.w3.org/2000/svg" xml:space="preserve" width="50px" height="50px" version="1.1" style="shape-rendering:geometricPrecision; text-rendering:geometricPrecision; image-rendering:optimizeQuality; fill-rule:evenodd; clip-rule:evenodd"
viewBox="0 0 50 50"
 xmlns:xlink="http://www.w3.org/1999/xlink">
 <defs>
  <style type="text/css">
   <![CDATA[
    .fil0 {fill:#1565C0}
   ]]>
  </style>
 </defs>
 <g id="Layer_x0020_1">
  <metadata id="CorelCorpID_0Corel-Layer"/>
  <path class="fil0" d="M41 9l-3 0 0 -4 -4 0 0 4 -18 0 0 -4 -4 0 0 4 -3 0c-2,0 -4,2 -4,4l0 28c0,2 2,4 4,4l32 0c2,0 4,-2 4,-4l0 -28c0,-2 -2,-4 -4,-4zm0 32l-32 0 0 -22 32 0 0 22zm-27 -18l11 0 0 10 -11 0 0 -10z"/>
 </g>
</svg>
