<?xml version="1.0" encoding="UTF-8"?>
<!DOCTYPE svg PUBLIC "-//W3C//DTD SVG 1.1//EN" "http://www.w3.org/Graphics/SVG/1.1/DTD/svg11.dtd">
<!-- Creator: CorelDRAW X7 -->
<svg xmlns="http://www.w3.org/2000/svg" xml:space="preserve" width="50px" height="50px" version="1.1" style="shape-rendering:geometricPrecision; text-rendering:geometricPrecision; image-rendering:optimizeQuality; fill-rule:evenodd; clip-rule:evenodd"
viewBox="0 0 50 50"
 xmlns:xlink="http://www.w3.org/1999/xlink"
 enable-background="new 0 0 24 24">
 <defs>
  <style type="text/css">
   <![CDATA[
    .fil0 {fill:#1565C0}
   ]]>
  </style>
 </defs>
 <g id="Layer_x0020_1">
  <metadata id="CorelCorpID_0Corel-Layer"/>
  <path class="fil0" d="M41 9l-5 0 0 -4 -22 0 0 4 -5 0c-2,0 -4,2 -4,5l0 2c0,6 4,10 10,11 1,3 4,6 8,7l0 7 -9 0 0 4 22 0 0 -4 -9 0 0 -7c4,-1 7,-4 8,-7 6,-1 10,-5 10,-11l0 -2c0,-3 -2,-5 -4,-5zm-32 7l0 -2 5 0 0 8c-3,-1 -5,-3 -5,-6zm32 0c0,3 -2,5 -5,6l0 -8 5 0 0 2z"/>
 </g>
</svg>
