<?xml version="1.0" encoding="UTF-8"?>
<!DOCTYPE svg PUBLIC "-//W3C//DTD SVG 1.1//EN" "http://www.w3.org/Graphics/SVG/1.1/DTD/svg11.dtd">
<!-- Creator: CorelDRAW X7 -->
<svg xmlns="http://www.w3.org/2000/svg" xml:space="preserve" width="50px" height="50px" version="1.1" style="shape-rendering:geometricPrecision; text-rendering:geometricPrecision; image-rendering:optimizeQuality; fill-rule:evenodd; clip-rule:evenodd"
viewBox="0 0 50 50"
 xmlns:xlink="http://www.w3.org/1999/xlink"
 enable-background="new 0 0 24 24">
 <defs>
  <style type="text/css">
   <![CDATA[
    .fil0 {fill:#999999}
   ]]>
  </style>
 </defs>
 <g id="Layer_x0020_1">
  <metadata id="CorelCorpID_0Corel-Layer"/>
  <path class="fil0" d="M25 5c-11,0 -20,9 -20,20 0,11 9,20 20,20 11,0 20,-9 20,-20 0,-11 -9,-20 -20,-20zm2 7l3 -2c3,1 6,3 8,6l0 3 -3 1 -8 -6 0 -2zm-7 -2l3 2 0 2 -8 6 -3 -1 0 -3c2,-3 5,-5 8,-6zm-5 25l-2 0c-3,-2 -4,-6 -4,-10 0,0 0,0 0,-1l2 -1 3 1 3 8 -2 3zm15 5c-2,1 -3,1 -5,1 -2,0 -3,0 -5,-1l-1 -3 1 -2 10 0 1 2 -1 3zm0 -9l-10 0 -2 -8 7 -5 7 5 -2 8zm7 4l-2 0 -2 -3 3 -8 3 -1 2 1c0,1 0,1 0,1 0,4 -1,8 -4,10z"/>
 </g>
</svg>
